<svg width="58" height="58" viewBox="0 0 58 58" fill="none" xmlns="http://www.w3.org/2000/svg">
<rect x="0.5" y="0.5" width="56.8942" height="56.8942" rx="3.53913" fill="white" stroke="black"/>
<path d="M29 7L33.3901 12.616L40 9.94744L40.9939 17.0061L48.0526 18L45.384 24.6099L51 29L45.384 33.3901L48.0526 40L40.9939 40.9939L40 48.0526L33.3901 45.384L29 51L24.6099 45.384L18 48.0526L17.0061 40.9939L9.94744 40L12.616 33.3901L7 29L12.616 24.6099L9.94744 18L17.0061 17.0061L18 9.94744L24.6099 12.616L29 7Z" fill="white"/>
<path d="M29 7L33.3901 12.616L40 9.94744L40.9939 17.0061L48.0526 18L45.384 24.6099L51 29L45.384 33.3901L48.0526 40L40.9939 40.9939L40 48.0526L33.3901 45.384L29 51L24.6099 45.384L18 48.0526L17.0061 40.9939L9.94744 40L12.616 33.3901L7 29L12.616 24.6099L9.94744 18L17.0061 17.0061L18 9.94744L24.6099 12.616L29 7Z" fill="#141414"/>
<path d="M19 32.7083C19 36.3333 22.2349 39 26.2069 39C30.0151 39 32.7586 36.875 33.9871 33.7083C34.069 33.5 34.1509 33.1667 34.4784 33.2917C34.7651 33.4167 34.6013 33.75 34.5194 34.125C34.2737 35.25 34.069 35.8333 34.069 36.625V38.6667H38V26.5C38 18.6667 33.6185 17 28.9095 17C24.0776 17 20.3922 19.125 19.6552 24H23.5043C23.7909 21.9167 25.0603 20.5 28.7457 20.5C33.0453 20.5 34.028 22.25 34.069 24C34.1099 26.2083 30.3017 25.75 26.5345 26.0417C22.5216 26.3333 19 27.8333 19 32.7083ZM34.069 27.1667C34.028 32.5417 30.9159 34.9167 27.722 35.3333C24.3233 35.7917 22.931 34.2083 22.931 32.5C22.931 30.5417 24.2414 29.625 26.7802 29.25C29.9741 28.7917 32.7996 28.75 34.069 27.1667Z" fill="white"/>
<path d="M19 32.7083C19 36.3333 22.2349 39 26.2069 39C30.0151 39 32.7586 36.875 33.9871 33.7083C34.069 33.5 34.1509 33.1667 34.4784 33.2917C34.7651 33.4167 34.6013 33.75 34.5194 34.125C34.2737 35.25 34.069 35.8333 34.069 36.625V38.6667H38V26.5C38 18.6667 33.6185 17 28.9095 17C24.0776 17 20.3922 19.125 19.6552 24H23.5043C23.7909 21.9167 25.0603 20.5 28.7457 20.5C33.0453 20.5 34.028 22.25 34.069 24C34.1099 26.2083 30.3017 25.75 26.5345 26.0417C22.5216 26.3333 19 27.8333 19 32.7083ZM34.069 27.1667C34.028 32.5417 30.9159 34.9167 27.722 35.3333C24.3233 35.7917 22.931 34.2083 22.931 32.5C22.931 30.5417 24.2414 29.625 26.7802 29.25C29.9741 28.7917 32.7996 28.75 34.069 27.1667Z" fill="white"/>
</svg>
